<svg xmlns="http://www.w3.org/2000/svg" viewBox="0 0 24 24" fill="none" stroke="#e2e2e2" stroke-width="1.5" stroke-linecap="round" stroke-linejoin="round">
  <path d="M21 10c0 0-6.219-3.625-8-4c-1.781-0.375-3.239 0.569-4 1c-0.761 0.431-2 2-2 2s-1.069 1.1-1 3c0.069 1.9 1 3 1 3s0.325 1.244 1 2c0.675 0.756 2 1 2 1s1.219 0.375 3-1c1.781-1.375 2-3 2-3s0.394-1.525 1-2c0.606-0.475 2-1 2-1s1.219-0.375 3-1c1.781-0.625 2-2 2-2s0.394-1.525 0-2c-0.394-0.475-2 0-2 0z"/>
  <path d="M11 12c0 0-1.739 0.816-2 2c-0.261 1.184 1 2 1 2"/>
  <path d="M14 13c0 0 0.692 1.184 0 2c-0.692 0.816-2 1-2 1"/>
</svg>
